<svg width="1080" height="1080" viewBox="0 0 1080 1080" fill="none" xmlns="http://www.w3.org/2000/svg">
<rect width="1080" height="1080" fill="#1E1E1E"/>
<rect width="1080" height="1080" fill="black"/>
<path d="M249.75 702V409.95H159.75V373.05H380.25V409.95H290.25V702H249.75ZM539.824 705.6C520.024 705.6 502.924 701.85 488.524 694.35C474.124 686.85 462.874 676.05 454.774 661.95C446.974 647.55 443.074 630.6 443.074 611.1V545.4C443.074 525.6 446.974 508.65 454.774 494.55C462.874 480.45 474.124 469.65 488.524 462.15C502.924 454.65 520.024 450.9 539.824 450.9C559.624 450.9 576.724 454.65 591.124 462.15C605.524 469.65 616.624 480.45 624.424 494.55C632.524 508.65 636.574 525.45 636.574 544.95V611.1C636.574 630.6 632.524 647.55 624.424 661.95C616.624 676.05 605.524 686.85 591.124 694.35C576.724 701.85 559.624 705.6 539.824 705.6ZM539.824 669.6C557.524 669.6 571.324 664.65 581.224 654.75C591.124 644.85 596.074 630.3 596.074 611.1V545.4C596.074 526.2 591.124 511.65 581.224 501.75C571.324 491.85 557.524 486.9 539.824 486.9C522.424 486.9 508.624 491.85 498.424 501.75C488.524 511.65 483.574 526.2 483.574 545.4V611.1C483.574 630.3 488.524 644.85 498.424 654.75C508.624 664.65 522.424 669.6 539.824 669.6ZM701.648 747V713.25H917.648V747H701.648Z" fill="white"/>
</svg>
