<svg width="1080" height="1080" viewBox="0 0 1080 1080" fill="none" xmlns="http://www.w3.org/2000/svg">
<rect width="1080" height="1080" fill="black"/>
<path d="M355.84 733V434.38H234.34V355H570.22V434.38H448.72V733H355.84ZM689.931 738.4C662.211 738.4 637.371 732.1 615.411 719.5C593.451 706.9 575.991 689.8 563.031 668.2C550.431 646.24 544.131 621.58 544.131 594.22C544.131 566.86 550.431 542.38 563.031 520.78C575.991 498.82 593.451 481.54 615.411 468.94C637.371 456.34 662.031 450.04 689.391 450.04C717.111 450.04 741.771 456.34 763.371 468.94C785.331 481.54 802.611 498.82 815.211 520.78C828.171 542.38 834.651 566.86 834.651 594.22C834.651 621.58 828.171 646.24 815.211 668.2C802.611 689.8 785.331 706.9 763.371 719.5C741.771 732.1 717.291 738.4 689.931 738.4ZM689.391 665.5C701.271 665.5 711.711 662.44 720.711 656.32C729.711 650.2 736.731 641.74 741.771 630.94C746.811 620.14 749.331 607.9 749.331 594.22C749.331 580.18 746.811 567.94 741.771 557.5C736.731 546.7 729.711 538.24 720.711 532.12C711.711 526 701.271 522.94 689.391 522.94C677.871 522.94 667.431 526 658.071 532.12C649.071 538.24 642.051 546.7 637.011 557.5C631.971 567.94 629.451 580.18 629.451 594.22C629.451 607.9 631.971 620.14 637.011 630.94C642.051 641.74 649.071 650.2 658.071 656.32C667.431 662.44 677.871 665.5 689.391 665.5Z" fill="white"/>
</svg>
